<svg width="156" height="29" viewBox="0 0 156 29" fill="none" xmlns="http://www.w3.org/2000/svg">
<path d="M4.80941 14.3294C5.28002 13.807 5.77358 13.2673 6.27863 12.7043C6.78367 12.1414 7.2715 11.5842 7.74785 11.0329C8.21846 10.4815 8.66612 9.95336 9.08508 9.46005C9.50404 8.96093 9.86558 8.53146 10.1698 8.16002H15.8917C14.7496 9.48907 13.6362 10.7543 12.5515 11.9556C11.4611 13.1628 10.2731 14.4048 8.98174 15.6874C9.63027 16.2736 10.296 16.9817 10.9847 17.8C11.6734 18.6183 12.3392 19.4657 12.9877 20.3362C13.6362 21.2068 14.2273 22.0831 14.7668 22.9537C15.3063 23.8242 15.7597 24.6252 16.1212 25.3448H10.5887C10.2444 24.776 9.85409 24.1492 9.41218 23.4644C8.97026 22.7796 8.50542 22.0889 8.00612 21.4041C7.51255 20.7193 6.99027 20.0576 6.44505 19.425C5.89983 18.7924 5.35463 18.2585 4.81515 17.8174V25.3506H0V0.7835L4.81515 0V14.3294H4.80941Z" fill="#1D2E56"/>
<path d="M34.4979 24.7586C33.6772 24.9966 32.6212 25.2229 31.3299 25.4261C30.0385 25.635 28.6784 25.7337 27.2608 25.7337C25.8146 25.7337 24.6151 25.5363 23.6566 25.1475C22.6982 24.7528 21.9406 24.2073 21.3782 23.4992C20.8158 22.7912 20.4197 21.9496 20.1844 20.9688C19.9491 19.988 19.8286 18.9085 19.8286 17.7362V8.16583H24.6438V17.15C24.6438 18.717 24.8504 19.8487 25.2579 20.5452C25.6653 21.2416 26.4344 21.5898 27.5535 21.5898C27.8979 21.5898 28.2652 21.5724 28.6497 21.5434C29.0399 21.5086 29.3843 21.4737 29.6827 21.4273V8.16003H34.4979V24.7586Z" fill="#1D2E56"/>
<path d="M72.1068 12.4721C71.6764 12.3618 71.1714 12.2515 70.586 12.1297C70.0063 12.0078 69.3807 11.9498 68.7093 11.9498C68.4051 11.9498 68.0493 11.9788 67.6246 12.031C67.2056 12.0832 66.8842 12.1471 66.6718 12.2109V25.3447H61.8567V9.07692C62.7176 8.77513 63.7334 8.48494 64.91 8.21217C66.0865 7.93939 67.395 7.80591 68.8355 7.80591C69.0938 7.80591 69.4037 7.82332 69.771 7.85234C70.1383 7.88716 70.4999 7.92779 70.8672 7.98002C71.2345 8.03225 71.6018 8.1019 71.9633 8.17735C72.3306 8.25279 72.6405 8.34565 72.8988 8.45592L72.1068 12.4721Z" fill="#1D2E56"/>
<path d="M91.6197 24.7586C90.799 24.9966 89.743 25.2229 88.4516 25.4261C87.1603 25.635 85.8002 25.7337 84.3826 25.7337C82.9421 25.7337 81.7368 25.5363 80.7784 25.1475C79.82 24.7528 79.0624 24.2073 78.5 23.4992C77.9375 22.7912 77.5416 21.9496 77.3063 20.9688C77.071 19.988 76.9504 18.9085 76.9504 17.7362V8.16583H81.7656V17.15C81.7656 18.717 81.9722 19.8487 82.3797 20.5452C82.7871 21.2416 83.5504 21.5898 84.6753 21.5898C85.0197 21.5898 85.387 21.5724 85.7715 21.5434C86.156 21.5086 86.5003 21.4737 86.8045 21.4273V8.16003H91.6197V24.7586Z" fill="#1D2E56"/>
<path d="M107.093 16.2272C107.093 14.6602 106.892 13.5459 106.496 12.8959C106.094 12.2401 105.411 11.9151 104.447 11.9151C104.143 11.9151 103.833 11.9325 103.511 11.9615C103.19 11.9963 102.874 12.0312 102.576 12.0776V25.3449H97.7607V8.74626C98.1682 8.63599 98.6503 8.52572 99.2013 8.40384C99.7522 8.28196 100.332 8.1775 100.946 8.07884C101.56 7.98017 102.191 7.90473 102.834 7.85249C103.483 7.80026 104.114 7.77124 104.739 7.77124C105.968 7.77124 106.961 7.92794 107.73 8.24714C108.493 8.56054 109.124 8.93778 109.618 9.37306C110.306 8.87394 111.098 8.47929 111.994 8.19491C112.889 7.91053 113.71 7.77124 114.467 7.77124C115.822 7.77124 116.941 7.96276 117.808 8.3458C118.68 8.72885 119.374 9.2686 119.891 9.96504C120.407 10.6615 120.763 11.4914 120.958 12.449C121.153 13.4066 121.251 14.4745 121.251 15.6527V25.3565H116.436V16.2389C116.436 14.6719 116.235 13.5575 115.839 12.9075C115.437 12.2517 114.754 11.9267 113.784 11.9267C113.526 11.9267 113.165 11.9905 112.7 12.124C112.235 12.2575 111.856 12.42 111.552 12.6115C111.701 13.1107 111.799 13.6388 111.845 14.1959C111.885 14.7531 111.908 15.3451 111.908 15.9777V25.3565H107.093V16.2272Z" fill="#1D2E56"/>
<path d="M50.7856 13.5574C50.9808 13.7199 51.1586 13.894 51.3193 14.0855C53.6839 13.1163 56.2148 12.5534 58.8261 12.4547C58.0399 9.44258 55.727 6.92957 52.5418 6.06482C52.45 7.55057 52.2146 9.04212 51.8186 10.5337C51.5432 11.5841 51.1931 12.5882 50.7856 13.5574Z" fill="#4D7AE3"/>
<path d="M56.7946 14.2365C55.1819 14.4628 53.6093 14.8923 52.0827 15.5017C52.3008 16.2156 52.3353 16.9933 52.1286 17.7652C51.5547 19.9416 49.3394 21.2358 47.1872 20.6554C45.0351 20.075 43.7552 17.8348 44.3292 15.6584C44.9031 13.482 47.1184 12.1878 49.2706 12.7682C49.3107 12.7798 49.3451 12.7914 49.3796 12.803C49.7469 11.9208 50.0568 11.027 50.2921 10.1217C50.47 9.44263 50.6192 8.7578 50.7283 8.06715C50.6594 8.04974 50.5963 8.02652 50.5274 8.00911C45.7811 6.72649 40.8856 9.58773 39.6173 14.3874C38.3489 19.1871 41.1783 24.1376 45.9246 25.4202C50.6709 26.7029 55.5664 23.8416 56.8347 19.042C57.2709 17.4053 57.225 15.7571 56.7946 14.2365Z" fill="#1D2E56"/>
<path d="M126.983 24.131C126.983 24.4386 126.88 24.6998 126.679 24.9261C126.478 25.1524 126.202 25.2627 125.858 25.2627C125.514 25.2627 125.238 25.1524 125.037 24.9261C124.836 24.6998 124.733 24.4328 124.733 24.131C124.733 23.8234 124.836 23.5622 125.037 23.3359C125.238 23.1095 125.514 22.9993 125.858 22.9993C126.202 22.9993 126.478 23.1153 126.679 23.3359C126.88 23.5622 126.983 23.8234 126.983 24.131Z" fill="#1D2E56"/>
<path d="M144.728 16.0406C144.86 16.0406 145.015 16.0464 145.188 16.0639C145.36 16.0813 145.532 16.1045 145.698 16.1335C145.865 16.1625 146.02 16.1915 146.157 16.2206C146.295 16.2496 146.398 16.2728 146.467 16.296L146.198 17.6715C146.071 17.6251 145.871 17.5728 145.584 17.509C145.297 17.4451 144.929 17.4161 144.482 17.4161C144.189 17.4161 143.902 17.4451 143.621 17.509C143.334 17.5728 143.15 17.6135 143.058 17.6367V25.048H141.497V16.6036C141.865 16.4701 142.324 16.3424 142.875 16.2206C143.426 16.0987 144.045 16.0406 144.728 16.0406Z" fill="#1D2E56"/>
<path d="M154.456 24.1658C154.324 24.2587 154.06 24.3748 153.676 24.5141C153.291 24.6534 152.838 24.723 152.327 24.723C151.799 24.723 151.305 24.6359 150.841 24.4676C150.376 24.2993 149.974 24.0324 149.624 23.6783C149.28 23.3243 149.004 22.8774 148.803 22.3493C148.602 21.8153 148.499 21.1827 148.499 20.4515C148.499 19.8073 148.591 19.2153 148.786 18.6813C148.975 18.1474 149.251 17.6831 149.618 17.2884C149.98 16.8996 150.427 16.592 150.95 16.3715C151.478 16.1509 152.069 16.0406 152.729 16.0406C153.458 16.0406 154.089 16.0929 154.634 16.2032C155.174 16.3134 155.633 16.4063 156 16.4991V24.369C156 25.727 155.656 26.7079 154.961 27.3231C154.267 27.9325 153.217 28.24 151.811 28.24C151.265 28.24 150.743 28.1936 150.261 28.1066C149.773 28.0195 149.354 27.9092 148.993 27.7874L149.28 26.4119C149.589 26.5338 149.974 26.644 150.427 26.7427C150.881 26.8356 151.351 26.8878 151.845 26.8878C152.775 26.8878 153.44 26.7021 153.848 26.3248C154.255 25.9534 154.462 25.3556 154.462 24.5431V24.1658H154.456ZM154.439 17.6193C154.284 17.5728 154.072 17.5322 153.808 17.4916C153.544 17.451 153.188 17.4335 152.74 17.4335C151.902 17.4335 151.254 17.7121 150.8 18.2635C150.347 18.8148 150.123 19.5519 150.123 20.4689C150.123 20.9796 150.186 21.4149 150.318 21.7747C150.445 22.1345 150.622 22.4363 150.841 22.6743C151.059 22.9122 151.311 23.0864 151.598 23.2024C151.885 23.3185 152.178 23.3707 152.476 23.3707C152.889 23.3707 153.268 23.3127 153.618 23.1908C153.963 23.0747 154.238 22.9355 154.439 22.773V17.6193Z" fill="#1D2E56"/>
<path d="M133.721 25.2511C131.196 25.2511 129.147 23.1734 129.147 20.6256C129.147 18.0777 131.201 16 133.721 16C136.24 16 138.295 18.0777 138.295 20.6256C138.295 23.1734 136.24 25.2511 133.721 25.2511ZM133.721 17.6192C132.085 17.6192 130.754 18.9657 130.754 20.6198C130.754 22.2738 132.085 23.6203 133.721 23.6203C135.356 23.6203 136.688 22.2738 136.688 20.6198C136.688 18.9657 135.356 17.6192 133.721 17.6192Z" fill="#1D2E56"/>
</svg>