<?xml version="1.0" encoding="UTF-8"?>
<svg id="_Grundfos_vers_A_100_mm" xmlns="http://www.w3.org/2000/svg" version="1.1" viewBox="0 0 128 18">
  <!-- Generator: Adobe Illustrator 29.3.1, SVG Export Plug-In . SVG Version: 2.1.0 Build 151)  -->
  <defs>
    <style>
      .st0 {
        fill: #11497b;
      }
    </style>
  </defs>
  <polygon class="st0" points="49.6 9.1 49.6 14.3 44.7 9.1 41 9.1 41 17.6 43.4 17.6 43.4 12.5 48.4 17.6 52 17.6 52 9.1 49.6 9.1"/>
  <path class="st0" d="M18.1,10.8h1.9c1.1,0,1.7.5,1.7,1.4s-.5,1.6-2.2,1.6l2.4,3.8h4l-2.5-3.6c.4,0,2-.3,2-2.5s-2.4-2.4-4-2.4h-7v8.5h3.6v-6.8h.1Z"/>
  <path class="st0" d="M34.9,9.1v4.8c0,.8-.2,1.4-.5,1.7s-.8.5-1.4.5-1.1-.1-1.4-.5-.5-.9-.5-1.7v-4.8h-3.6v5c0,1.4.3,1.9.9,2.5.9.9,2.6,1.3,4.7,1.3s3.7-.4,4.7-1.3c.6-.6.9-1.1.9-2.5v-5h-3.8Z"/>
  <path class="st0" d="M60.5,9.1h-5.8v8.5h5.8c4.2,0,6.2-.9,6.2-4.3s-1.9-4.2-6.2-4.2ZM60.1,15.9h-1.9v-5.1h1.9c1.9,0,2.8.8,2.8,2.5.1,1.7-.9,2.6-2.8,2.6Z"/>
  <path class="st0" d="M86.1,8.8c-4.7,0-6.7,1.7-6.7,4.5s2,4.6,6.7,4.6,6.7-1.5,6.7-4.6c0-2.7-2.1-4.5-6.7-4.5ZM86,16.1c-1.9,0-2.8-.9-2.8-2.8s.9-2.8,2.8-2.8,2.8.9,2.8,2.8-.8,2.8-2.8,2.8Z"/>
  <polygon class="st0" points="72.6 10.9 77.6 10.9 78.7 9.1 68.9 9.1 68.9 17.6 72.6 17.6 72.6 14.8 76.7 14.8 77.8 13 72.6 13 72.6 10.9"/>
  <path class="st0" d="M8.5,13.5v2.5s-1,.1-1.5.1c-2.8,0-3.2-1.5-3.2-2.7,0-1.8,1.1-2.7,3.4-2.7s2.3.1,3.4.3h.5c0,.1,1.1-1.8,1.1-1.8-2.5-.3-4.1-.3-5.5-.3-4.6,0-6.7,1.5-6.7,4.6s2.1,4.4,6.7,4.4,3.9-.1,5.4-.5v-3.8h-3.6Z"/>
  <path class="st0" d="M101.5,12.3c-1.7-.3-2.7-.3-2.7-1s1.7-.8,2.8-.8,1.9.1,2.8.3l1-1.7c-.7-.1-2.7-.3-4.8-.3-3.8,0-6.3.7-6.3,2.5s2.1,2.3,4.2,2.7c1.6.3,2.7.3,2.7,1.1s-1.4,1-2.8,1-1.6-.1-3.1-.4l-1.3,2c1.6.2,2.3.3,5.3.3,4.3,0,6.3-.8,6.3-2.9,0-2-2.1-2.5-4.1-2.8Z"/>
  <path class="st0" d="M115.5,17.6h-4.6c3.3-3.3,6.4-6.4,6.4-6.4,0,0,.4.2,1.2,1,.9.8,1.1,1.2,1.1,1.2l-4.1,4.2Z"/>
  <path class="st0" d="M113.4,12.7c-2.4-2.9-3.1-4.2-3.7-5.8-.4-1-.9-2.9,0-3.9.9-.9,2.6-.6,4.4.2,2,.9,4.3,2.6,6.5,4.6l7.2-7.2v4.6l-6.6,6.6s-.7-.8-1.1-1.1c-3.9-3.8-7.5-5.7-8.4-4.8-1.2,1.2,2.5,5.5,2.6,5.7l-1,1.1Z"/>
  <path class="st0" d="M128,17.6h-2.6s-.3-.9-1.2-2.3c-.9-1.4-1.7-2.2-1.7-2.2l1.7-1.7c.7.9,1.4,1.8,2.1,2.9.7,1.1,1.3,2.2,1.7,3.3Z"/>
</svg>