<?xml version="1.0" encoding="UTF-8"?>
<!-- Generator: Adobe Illustrator 16.0.4, SVG Export Plug-In . SVG Version: 6.00 Build 0)  -->
<!DOCTYPE svg PUBLIC "-//W3C//DTD SVG 1.1//EN" "http://www.w3.org/Graphics/SVG/1.1/DTD/svg11.dtd">
<svg version="1.1" id="Capa_1" xmlns="http://www.w3.org/2000/svg" xmlns:xlink="http://www.w3.org/1999/xlink" x="0px" y="0px" width="148.402px" height="72.168px" viewBox="24.799 11.916 148.402 72.168" enable-background="new 24.799 11.916 148.402 72.168" xml:space="preserve">
<g>
	<path fill="#015D8C" d="M29.046,77.372h1.216c1.056,0,1.63-0.699,1.63-2.004c0-1.284-0.572-1.969-1.63-1.969h-1.216V77.372z    M30.046,79.467h-1v4.364h-2.201V71.308h3.438c2.451,0,3.866,1.484,3.866,4.046c0,1.821-0.7,3.116-1.969,3.722l2.521,4.758h-2.415   L30.046,79.467z"/>
	<path fill="#015D8C" d="M41.337,79.808v-4.473c0-1.361-0.559-2.112-1.666-2.112c-1.109,0-1.682,0.751-1.682,2.112v4.473   c0,1.358,0.572,2.109,1.682,2.109C40.778,81.917,41.337,81.166,41.337,79.808 M35.719,79.808v-4.473c0-2.647,1.469-4.24,3.952-4.24   c2.47,0,3.938,1.593,3.938,4.24v4.473c0,2.646-1.469,4.24-3.938,4.24C37.186,84.048,35.719,82.452,35.719,79.808"/>
	<path fill="#015D8C" d="M45.252,80.074v-5.006c0-2.596,1.415-4.011,3.761-4.011c2.396,0,3.758,1.415,3.862,3.975h-2.198   c-0.075-1.287-0.61-1.838-1.683-1.838c-0.915,0-1.469,0.589-1.469,1.876v5.009c0,1.254,0.554,1.841,1.486,1.841   c1.092,0,1.63-0.554,1.715-1.805h2.202c-0.09,2.534-1.502,3.933-3.917,3.933C46.686,84.048,45.252,82.649,45.252,80.074"/>
	<path fill="#015D8C" d="M58.366,79.467l-0.5-2.325c-0.179-0.86-0.376-2.239-0.5-3.077h-0.054c-0.107,0.838-0.305,2.217-0.487,3.077   l-0.497,2.325H58.366z M58.812,81.559h-2.934l-0.502,2.272h-2.286l3.075-12.523h2.363l3.076,12.523h-2.292L58.812,81.559z"/>
	<path fill="#015D8C" d="M62.034,80.289h2.253c0.021,1.131,0.61,1.647,1.56,1.647c1.002,0,1.481-0.592,1.481-1.395   c0-2.272-5.045-2.453-5.045-6.227c0-1.86,1.323-3.259,3.542-3.259c2.238,0,3.6,1.383,3.617,3.617h-2.253   c-0.019-1.002-0.521-1.48-1.364-1.48c-0.82,0-1.302,0.464-1.302,1.177c0,2.184,5.096,2.253,5.096,6.19   c0,1.968-1.376,3.523-3.794,3.523C63.519,84.083,62.05,82.709,62.034,80.289"/>
	<rect x="76.559" y="71.308" fill="#015D8C" width="2.2" height="12.523"/>
	<path fill="#015D8C" d="M88.812,71.308v12.523H86.63l-2.414-5.438c-0.378-0.983-0.826-2.128-1.164-3.058l-0.057,0.056   c0.161,1.413,0.27,3.543,0.27,4.849v3.597h-2.164V71.311h2.184l2.612,5.889c0.323,0.805,0.7,1.792,1.002,2.561l0.057-0.057   c-0.18-1.415-0.305-3.436-0.305-4.58v-3.812h2.161L88.812,71.308L88.812,71.308z"/>
	<path fill="#015D8C" d="M94.482,81.743c1.092,0,1.682-0.702,1.682-2.025v-4.364c0-1.287-0.592-1.951-1.682-1.951h-1.11v8.341   H94.482L94.482,81.743z M91.174,71.308h3.272c2.489,0,3.938,1.484,3.938,4.046v4.384c0,2.576-1.448,4.099-3.899,4.099h-3.309   V71.308H91.174z"/>
	<path fill="#015D8C" d="M100.17,79.882v-8.574h2.271v8.574c0,1.344,0.574,2.021,1.578,2.021c1,0,1.572-0.679,1.572-2.021v-8.574   h2.291v8.574c0,2.63-1.466,4.146-3.863,4.146C101.637,84.028,100.17,82.51,100.17,79.882"/>
	<path fill="#015D8C" d="M109.225,80.289h2.25c0.021,1.131,0.606,1.647,1.557,1.647c1.004,0,1.486-0.592,1.486-1.395   c0-2.272-5.051-2.453-5.051-6.227c0-1.86,1.327-3.259,3.549-3.259c2.237,0,3.596,1.383,3.612,3.617h-2.256   c-0.018-1.002-0.518-1.48-1.356-1.48c-0.822,0-1.308,0.464-1.308,1.177c0,2.184,5.101,2.253,5.101,6.19   c0,1.968-1.379,3.523-3.793,3.523C110.709,84.083,109.236,82.709,109.225,80.289"/>
	<polygon fill="#015D8C" points="124.857,73.401 122.335,73.401 122.335,83.831 120.081,83.831 120.081,73.401 117.559,73.401    117.559,71.308 124.857,71.308  "/>
	<path fill="#015D8C" d="M128.383,77.372h1.217c1.055,0,1.629-0.699,1.629-2.004c0-1.284-0.574-1.969-1.629-1.969h-1.217V77.372z    M129.389,79.467h-1.006v4.364h-2.199V71.308h3.436c2.449,0,3.863,1.484,3.863,4.046c0,1.821-0.695,3.116-1.965,3.722l2.52,4.758   h-2.414L129.389,79.467z"/>
	<rect x="135.413" y="71.308" fill="#015D8C" width="2.203" height="12.523"/>
	<path fill="#015D8C" d="M144.145,79.467l-0.496-2.325c-0.182-0.86-0.377-2.239-0.502-3.077h-0.058   c-0.11,0.838-0.307,2.217-0.483,3.077l-0.5,2.325H144.145z M144.592,81.559h-2.931l-0.506,2.272h-2.289l3.076-12.523h2.363   l3.078,12.523h-2.289L144.592,81.559z"/>
	<polygon fill="#015D8C" points="154.755,81.743 154.755,83.831 148.637,83.831 148.637,71.308 150.835,71.308 150.835,81.743  "/>
	<polygon fill="#015D8C" points="162.518,81.756 162.518,83.831 156.038,83.831 156.038,71.308 162.337,71.308 162.337,73.384    158.241,73.384 158.241,76.482 161.999,76.482 161.999,78.485 158.241,78.485 158.241,81.756  "/>
	<path fill="#015D8C" d="M163.569,80.289h2.256c0.017,1.131,0.605,1.647,1.558,1.647c1,0,1.483-0.592,1.483-1.395   c0-2.272-5.047-2.453-5.047-6.227c0-1.86,1.326-3.259,3.541-3.259c2.238,0,3.6,1.383,3.615,3.617h-2.25   c-0.021-1.002-0.521-1.48-1.365-1.48c-0.82,0-1.305,0.464-1.305,1.177c0,2.184,5.096,2.253,5.096,6.19   c0,1.968-1.373,3.523-3.791,3.523C165.061,84.083,163.587,82.709,163.569,80.289"/>
	<path d="M90.261,55.635c3.34,0,5.146-2.133,5.146-6.186v-13.36c0-3.939-1.807-5.965-5.146-5.965h-3.395v25.514h3.395V55.635z    M80.133,23.715h10.02c7.605,0,12.045,4.545,12.045,12.374v13.414c0,7.883-4.438,12.538-11.937,12.538H80.133V23.715z"/>
	<rect x="108.326" y="23.715" width="6.732" height="38.328"/>
	<path d="M128.967,42.274h3.723c3.227,0,4.979-2.136,4.979-6.129c0-3.942-1.754-6.024-4.979-6.024h-3.723V42.274z M132.032,48.681   h-3.065v13.36h-6.734V23.715h10.508c7.504,0,11.828,4.545,11.828,12.374c0,5.583-2.133,9.525-6.021,11.387l7.72,14.565h-7.393   L132.032,48.681z"/>
	<path d="M163.29,48.681l-1.528-7.115c-0.55-2.63-1.152-6.843-1.533-9.418h-0.164c-0.332,2.573-0.932,6.788-1.478,9.418   l-1.532,7.115l-1.369,6.405l-1.533,6.955h-7.01l9.412-38.326h7.229l9.418,38.328h-7.008l-1.535-6.954L163.29,48.681z"/>
	<path d="M67.052,49.721c0,4.161-1.697,6.463-5.092,6.463c-3.394,0-5.145-2.302-5.145-6.463V36.035c0-4.161,1.751-6.46,5.145-6.46   c3.395,0,5.092,2.299,5.092,6.46V49.721z M74.003,36.035c0-8.102-4.487-12.977-12.045-12.977c-7.607,0-12.099,4.873-12.099,12.977   v13.686c0,8.105,4.491,12.978,12.099,12.978c7.555,0,12.045-4.871,12.045-12.978V36.035z"/>
	<path fill="#015D8C" d="M61.957,19.555c3.089,0,5.81,0.707,8.09,1.984l-8.115-9.623l-8.145,9.656   C56.082,20.272,58.835,19.555,61.957,19.555"/>
	<path d="M31.428,45.217l4.678-5.547c-0.041-0.005-0.077-0.018-0.116-0.022c-2.688-0.434-4.535-2.923-4.111-5.551   c0.424-2.627,2.953-4.411,5.646-3.98c1.874,0.3,3.319,1.609,3.889,3.263l4.691-5.56c-1.789-2.261-4.409-3.896-7.509-4.394   c-6.466-1.041-12.551,3.253-13.568,9.569C24.206,38.101,26.941,42.978,31.428,45.217"/>
	<path d="M39.477,40.772l-4.678,5.545c0.038,0.008,0.073,0.018,0.114,0.024c2.688,0.432,4.532,2.919,4.112,5.55   c-0.42,2.625-2.953,4.414-5.642,3.98c-1.876-0.303-3.322-1.612-3.895-3.263l-4.69,5.56c1.792,2.259,4.411,3.899,7.506,4.396   c6.465,1.041,12.556-3.257,13.567-9.572C46.697,47.891,43.962,43.013,39.477,40.772"/>
</g>
</svg>